<?xml version="1.0" encoding="UTF-8" standalone="no"?>
<!-- Created with Inkscape (http://www.inkscape.org/) -->

<svg
   width="128"
   height="128"
   viewBox="0 0 33.866667 33.866667"
   version="1.1"
   id="svg1"
   xmlns:xlink="http://www.w3.org/1999/xlink"
   xmlns="http://www.w3.org/2000/svg"
   xmlns:svg="http://www.w3.org/2000/svg"
   xmlns:rdf="http://www.w3.org/1999/02/22-rdf-syntax-ns#"
   xmlns:cc="http://creativecommons.org/ns#"
   xmlns:dc="http://purl.org/dc/elements/1.1/">
  <title
     id="title1">sharecane logo</title>
  <defs
     id="defs1">
    <linearGradient
       id="linearGradient6">
      <stop
         style="stop-color:#000000;stop-opacity:1;"
         offset="0"
         id="stop7" />
      <stop
         style="stop-color:#000000;stop-opacity:0;"
         offset="1"
         id="stop8" />
    </linearGradient>
    <radialGradient
       xlink:href="#linearGradient6"
       id="radialGradient8"
       cx="9.9369478"
       cy="9.462347"
       fx="9.9369478"
       fy="9.462347"
       r="3.9589663"
       gradientUnits="userSpaceOnUse"
       gradientTransform="translate(-0.88987591,-1.5329338)" />
    <radialGradient
       xlink:href="#linearGradient6"
       id="radialGradient8-4"
       cx="9.9369478"
       cy="9.462347"
       fx="9.9369478"
       fy="9.462347"
       r="3.9589663"
       gradientUnits="userSpaceOnUse"
       gradientTransform="translate(15.073524,7.1871018)" />
    <radialGradient
       xlink:href="#linearGradient6"
       id="radialGradient8-7"
       cx="9.9369478"
       cy="9.462347"
       fx="9.9369478"
       fy="9.462347"
       r="3.9589663"
       gradientUnits="userSpaceOnUse"
       gradientTransform="translate(-0.75420914,16.986202)" />
  </defs>
  <g
     id="layer1">
    <path
       style="fill:#000000;stroke:#000000;stroke-width:0.264999;stroke-dasharray:none;stroke-opacity:1"
       d="M 9.1360592,7.830908 C 14.514865,10.658736 19.89367,13.486563 25.272476,16.314391"
       id="path8" />
    <path
       style="fill:#000000;stroke:#000000;stroke-width:0.264999;stroke-dasharray:none;stroke-opacity:1"
       d="M 25.272476,16.314391 C 19.952995,19.755245 14.633515,23.196098 9.3140344,26.636951"
       id="path9" />
    <circle
       style="fill:url(#radialGradient8);stroke:#000000;stroke-width:0.265;stroke-dasharray:none;stroke-opacity:1"
       id="path1"
       cx="9.0470715"
       cy="7.9294133"
       r="3.8264663" />
    <circle
       style="fill:url(#radialGradient8-4);stroke:#000000;stroke-width:0.265;stroke-dasharray:none;stroke-opacity:1"
       id="path1-5"
       cx="25.010471"
       cy="16.649445"
       r="3.8264663" />
    <circle
       style="fill:url(#radialGradient8-7);stroke:#000000;stroke-width:0.265;stroke-dasharray:none;stroke-opacity:1"
       id="path1-7"
       cx="9.1827374"
       cy="26.448547"
       r="3.8264663" />
  </g>
  <g
     id="layer2">
    <path
       id="rect12"
       style="fill:#000000;fill-opacity:1;stroke:#ffffff;stroke-width:0.288771;stroke-linecap:butt;stroke-dasharray:none;stroke-dashoffset:0;stroke-opacity:1"
       d="m 16.879287,3.3808004 c -1.251444,-0.06064 -2.420625,0.096119 -3.080486,0.2109853 -0.879815,0.1531546 -0.853777,0.2313868 -0.762535,0.2639728 0.09124,0.032586 0.2475,0.019549 0.840571,0.1107917 0.593071,0.091242 1.622788,0.2867198 2.590594,0.6777548 0.967807,0.3910354 1.873677,0.9776446 2.437414,1.8444378 0.563736,0.8667931 0.785032,2.0139671 0.960996,2.6363565 0.05954,0.2105879 0.113813,0.3610059 0.166187,0.4725499 L 6.11806,31.614332 6.9923491,32.166845 20.849477,10.241203 c 0.06896,0.0269 0.144807,0.05292 0.228808,0.07659 0.358449,0.101016 0.866946,0.166048 1.362254,0.06503 0.495309,-0.101019 0.977344,-0.368471 1.322755,-0.6584868 0.345411,-0.290017 0.554181,-0.6026678 0.782284,-0.6873894 0.228103,-0.084722 0.475377,0.058678 0.889222,0.3193684 0.413845,0.26069 0.994148,0.638482 1.254835,0.8665828 0.260686,0.2281 0.202117,0.306446 0.12717,0.433532 -0.07495,0.127085 -0.166386,0.303132 -0.185938,0.404148 -0.01955,0.101016 0.03275,0.127139 0.143547,0.195571 0.110795,0.06843 0.28001,0.179393 0.381027,0.198943 0.101016,0.01955 0.133454,-0.05244 0.397404,-0.521683 0.26395,-0.469244 0.759334,-1.3358448 0.958106,-1.7953048 0.198772,-0.459459 0.101007,-0.5117259 -0.873326,-1.042884 C 26.663292,7.564062 24.81267,6.5541141 23.101916,5.6221606 21.391163,4.6902076 19.820496,3.8362052 18.14231,3.5233838 17.722764,3.4451789 17.296435,3.4010133 16.879287,3.3808004 Z" />
  </g>
  <metadata
     id="metadata1">
    <rdf:RDF>
      <cc:Work
         rdf:about="">
        <dc:title>sharecane logo</dc:title>
        <dc:date>2025/07/31</dc:date>
        <dc:creator>
          <cc:Agent>
            <dc:title>oageo</dc:title>
          </cc:Agent>
        </dc:creator>
        <cc:license
           rdf:resource="http://creativecommons.org/licenses/by/4.0/" />
      </cc:Work>
      <cc:License
         rdf:about="http://creativecommons.org/licenses/by/4.0/">
        <cc:permits
           rdf:resource="http://creativecommons.org/ns#Reproduction" />
        <cc:permits
           rdf:resource="http://creativecommons.org/ns#Distribution" />
        <cc:requires
           rdf:resource="http://creativecommons.org/ns#Notice" />
        <cc:requires
           rdf:resource="http://creativecommons.org/ns#Attribution" />
        <cc:permits
           rdf:resource="http://creativecommons.org/ns#DerivativeWorks" />
      </cc:License>
    </rdf:RDF>
  </metadata>
</svg>
